# 3ds Max Wavefront OBJ Exporter v0.97b - (c)2007 guruware
# File Created: 30.03.2019 23:01:12

mtllib SkyBox.mtl

#
# object Box034
#

v  -2500.0000 -2500.0000 2500.0000
v  2500.0000 -2500.0000 2500.0000
v  2500.0000 -2500.0000 -2500.0000
v  -2500.0000 -2500.0000 -2500.0000
v  -2500.0000 2500.0000 2500.0000
v  -2500.0000 2500.0000 -2500.0000
v  2500.0000 2500.0000 -2500.0000
v  2500.0000 2500.0000 2500.0000
# 8 vertices

vn 0.0000 1.0000 -0.0000
vn 0.0000 -1.0000 -0.0000
vn 0.0000 0.0000 -1.0000
vn -1.0000 0.0000 -0.0000
vn 0.0000 0.0000 1.0000
vn 1.0000 0.0000 -0.0000
# 6 vertex normals

vt 0.5041 0.9888 0.0000
vt 1.0045 0.9888 0.0000
vt 1.0045 0.0005 0.0000
vt 0.5041 0.0005 0.0000
vt 0.0009 0.0005 0.0000
vt 0.0009 0.9888 0.0000
vt 0.5013 0.9888 0.0000
vt 0.5013 0.0005 0.0000
vt 0.0005 0.0212 0.0000
vt 0.0005 0.9995 0.0000
vt 0.2498 0.9995 0.0000
vt 0.2498 0.0212 0.0000
vt 0.4992 0.9995 0.0000
vt 0.4992 0.0212 0.0000
vt 0.7485 0.9995 0.0000
vt 0.7485 0.0212 0.0000
vt 0.9979 0.9995 0.0000
vt 0.9979 0.0212 0.0000
# 18 texture coords

o Box034
g Box034
usemtl SkyBox_Material__281
f 1/1/1 2/2/1 3/3/1 
f 3/3/1 4/4/1 1/1/1 
f 5/5/2 6/6/2 7/7/2 
f 7/7/2 8/8/2 5/5/2 
f 1/9/3 5/10/3 8/11/3 
f 8/11/3 2/12/3 1/9/3 
f 2/12/4 8/11/4 7/13/4 
f 7/13/4 3/14/4 2/12/4 
f 3/14/5 7/13/5 6/15/5 
f 6/15/5 4/16/5 3/14/5 
f 4/16/6 6/15/6 5/17/6 
f 5/17/6 1/18/6 4/16/6 
# 12 faces

