# 3ds Max Wavefront OBJ Exporter v0.97b - (c)2007 guruware
# File Created: 01.04.2019 03:18:28

mtllib H.mtl

#
# object Box001
#

v  -33.0780 3.5108 -6.3203
v  33.0780 3.5108 -6.3203
v  33.0780 -3.5108 -6.3203
v  -33.0780 -3.5108 -6.3203
v  33.0780 3.5108 6.3203
v  -33.0780 3.5108 6.3203
v  -33.0780 -3.5108 6.3203
v  33.0780 -3.5108 6.3203
v  -27.1014 -38.6359 -7.7105
v  27.1014 -38.6359 -7.7105
v  27.1014 -38.6359 7.7105
v  -27.1014 -38.6359 7.7105
v  37.5485 3.5108 -6.3203
v  37.5485 3.5108 6.3203
v  37.5485 -3.5108 6.3203
v  37.5485 -3.5108 -6.3203
v  27.1014 38.6359 -7.7105
v  -27.1014 38.6359 -7.7105
v  -27.1014 38.6359 7.7105
v  27.1014 38.6359 7.7105
v  -37.5485 -3.5108 -6.3203
v  -37.5485 -3.5108 6.3203
v  -37.5485 3.5108 6.3203
v  -37.5485 3.5108 -6.3203
v  38.6359 -27.1014 -7.7105
v  38.6359 -27.1014 7.7105
v  -38.6359 -27.1014 7.7105
v  -38.6359 -27.1014 -7.7105
v  38.6359 27.1014 -7.7105
v  38.6359 27.1014 7.7105
v  -38.6359 27.1014 -7.7105
v  -38.6359 27.1014 7.7105
v  -33.0780 24.7993 -6.3203
v  -24.7993 33.0780 -6.3203
v  24.7993 33.0780 -6.3203
v  33.0780 24.7993 -6.3203
v  33.0780 -24.7993 -6.3203
v  24.7993 -33.0780 -6.3203
v  -24.7993 -33.0780 -6.3203
v  -33.0780 -24.7993 -6.3203
v  33.0780 24.7993 6.3203
v  24.7993 33.0780 6.3203
v  -24.7993 33.0780 6.3203
v  -33.0780 24.7993 6.3203
v  -33.0780 -24.7993 6.3203
v  -24.7993 -33.0780 6.3203
v  24.7993 -33.0780 6.3203
v  33.0780 -24.7993 6.3203
v  38.6205 3.5108 7.8799
v  38.6205 3.5108 -7.8799
v  38.6205 -3.5108 -7.8799
v  38.6205 -3.5108 7.8799
v  -38.6205 -3.5108 7.8799
v  -38.6205 -3.5108 -7.8799
v  -38.6205 3.5108 -7.8799
v  -38.6205 3.5108 7.8799
v  -33.0780 -3.5108 -8.5259
v  -33.0780 -24.7993 -8.5259
v  -33.0780 24.7993 -8.5259
v  -33.0780 3.5108 -8.5259
v  -24.7993 33.0780 -8.5259
v  24.7993 33.0780 -8.5259
v  33.0780 24.7993 -8.5259
v  33.0780 3.5108 -8.5259
v  33.0780 -24.7993 -8.5259
v  33.0780 -3.5108 -8.5259
v  24.7993 -33.0780 -8.5259
v  -24.7993 -33.0780 -8.5259
v  24.7993 -33.0780 8.5259
v  -24.7993 -33.0780 8.5259
v  33.0780 -24.7993 8.5259
v  33.0780 -3.5108 8.5259
v  33.0780 24.7993 8.5259
v  33.0780 3.5108 8.5259
v  24.7993 33.0780 8.5259
v  -24.7993 33.0780 8.5259
v  -33.0780 24.7993 8.5259
v  -33.0780 3.5108 8.5259
v  -33.0780 -24.7993 8.5259
v  -33.0780 -3.5108 8.5259
# 80 vertices

vn 0.0000 0.0000 -1.0000
vn 0.0000 -0.0000 1.0000
vn 0.0000 -1.0000 -0.0000
vn 1.0000 0.0000 -0.0000
vn 0.0000 1.0000 0.0000
vn -1.0000 0.0000 -0.0000
vn 0.7071 -0.7071 -0.0000
vn -0.7071 -0.7071 -0.0000
vn 0.7071 0.7071 0.0000
vn -0.7071 0.7071 0.0000
vn 1.0000 -0.0007 -0.0000
vn 1.0000 0.0007 0.0000
vn -1.0000 0.0007 0.0000
vn -1.0000 -0.0007 -0.0000
vn -0.0799 -0.0049 -0.9968
vn -0.1003 0.0000 -0.9950
vn -0.0983 0.0048 -0.9951
vn -0.0799 0.0000 -0.9968
vn -0.0709 0.0709 -0.9950
vn 0.0000 0.1003 -0.9950
vn 0.0709 0.0709 -0.9950
vn 0.0799 0.0049 -0.9968
vn 0.1003 0.0000 -0.9950
vn 0.0983 -0.0048 -0.9951
vn 0.0799 0.0000 -0.9968
vn 0.0709 -0.0709 -0.9950
vn 0.0000 -0.1003 -0.9950
vn -0.0709 -0.0709 -0.9950
vn 0.0000 -0.1003 0.9950
vn 0.0709 -0.0709 0.9950
vn 0.0799 -0.0049 0.9968
vn 0.1003 -0.0000 0.9950
vn 0.0983 0.0048 0.9951
vn 0.0799 -0.0000 0.9968
vn 0.0709 0.0709 0.9950
vn 0.0000 0.1003 0.9950
vn -0.0709 0.0709 0.9950
vn -0.0799 0.0049 0.9968
vn -0.1003 -0.0000 0.9950
vn -0.0983 -0.0048 0.9951
vn -0.0799 -0.0000 0.9968
vn -0.0709 -0.0709 0.9950
# 42 vertex normals

vt 0.2055 0.7731 0.0000
vt 0.5687 0.7731 0.0000
vt 0.5687 0.8116 0.0000
vt 0.2055 0.8116 0.0000
vt 0.9596 0.7638 0.0000
vt 0.5963 0.7638 0.0000
vt 0.5963 0.7253 0.0000
vt 0.9596 0.7253 0.0000
vt 0.0891 0.0158 0.0000
vt 0.4128 0.0158 0.0000
vt 0.4128 0.0791 0.0000
vt 0.0891 0.0791 0.0000
vt 0.5891 0.3149 0.0000
vt 0.5414 0.3149 0.0000
vt 0.5414 0.2763 0.0000
vt 0.5891 0.2763 0.0000
vt 0.5538 0.0158 0.0000
vt 0.8775 0.0158 0.0000
vt 0.8775 0.0791 0.0000
vt 0.5538 0.0791 0.0000
vt 0.6455 0.3149 0.0000
vt 0.5978 0.3149 0.0000
vt 0.5978 0.2763 0.0000
vt 0.6455 0.2763 0.0000
vt 0.4817 0.0158 0.0000
vt 0.4817 0.0791 0.0000
vt 0.0202 0.0791 0.0000
vt 0.0202 0.0158 0.0000
vt 0.4849 0.0158 0.0000
vt 0.4849 0.0791 0.0000
vt 0.9464 0.0158 0.0000
vt 0.9464 0.0791 0.0000
vt 0.2055 0.6562 0.0000
vt 0.2509 0.6107 0.0000
vt 0.5233 0.6107 0.0000
vt 0.5687 0.6562 0.0000
vt 0.5687 0.9285 0.0000
vt 0.5233 0.9740 0.0000
vt 0.2509 0.9740 0.0000
vt 0.2055 0.9285 0.0000
vt 0.9596 0.8807 0.0000
vt 0.9141 0.9262 0.0000
vt 0.6418 0.9262 0.0000
vt 0.5963 0.8807 0.0000
vt 0.5963 0.6084 0.0000
vt 0.6418 0.5629 0.0000
vt 0.9141 0.5629 0.0000
vt 0.9596 0.6084 0.0000
vt 0.5153 0.2136 0.0000
vt 0.5153 0.1554 0.0000
vt 0.6448 0.1547 0.0000
vt 0.6448 0.2142 0.0000
vt 0.2441 0.2452 0.0000
vt 0.1859 0.2452 0.0000
vt 0.1853 0.1156 0.0000
vt 0.2447 0.1156 0.0000
vt 0.5153 0.2744 0.0000
vt 0.5153 0.2162 0.0000
vt 0.6448 0.2155 0.0000
vt 0.6448 0.2750 0.0000
vt 0.9259 0.3103 0.0000
vt 0.8677 0.3103 0.0000
vt 0.8671 0.1808 0.0000
vt 0.9266 0.1808 0.0000
vt 0.4405 0.1443 0.0000
vt 0.4404 0.2739 0.0000
vt 0.4100 0.2739 0.0000
vt 0.4100 0.1569 0.0000
vt 0.1809 0.8116 0.0000
vt 0.1809 0.7731 0.0000
vt 0.4416 0.3130 0.0000
vt 0.4415 0.1834 0.0000
vt 0.4720 0.1960 0.0000
vt 0.4720 0.3130 0.0000
vt 0.5049 0.1200 0.0000
vt 0.5175 0.1505 0.0000
vt 0.8027 0.1200 0.0000
vt 0.7901 0.1505 0.0000
vt 0.8661 0.1834 0.0000
vt 0.8356 0.1960 0.0000
vt 0.8660 0.3130 0.0000
vt 0.8356 0.3130 0.0000
vt 0.5933 0.7731 0.0000
vt 0.5933 0.8116 0.0000
vt 0.0160 0.2739 0.0000
vt 0.0159 0.1443 0.0000
vt 0.0464 0.1569 0.0000
vt 0.0464 0.2739 0.0000
vt 0.0793 0.0809 0.0000
vt 0.0919 0.1114 0.0000
vt 0.3771 0.0809 0.0000
vt 0.3645 0.1114 0.0000
vt 0.0202 0.9111 0.0000
vt 0.0202 0.6133 0.0000
vt 0.0508 0.6259 0.0000
vt 0.0508 0.8985 0.0000
vt 0.0836 0.5499 0.0000
vt 0.0963 0.5805 0.0000
vt 0.2133 0.5500 0.0000
vt 0.2133 0.5805 0.0000
vt 0.9841 0.7253 0.0000
vt 0.9841 0.7638 0.0000
vt 0.7802 0.0810 0.0000
vt 0.9098 0.0809 0.0000
vt 0.8972 0.1114 0.0000
vt 0.7802 0.1114 0.0000
vt 0.9732 0.1443 0.0000
vt 0.9427 0.1569 0.0000
vt 0.9732 0.4421 0.0000
vt 0.9427 0.4295 0.0000
vt 0.9098 0.5055 0.0000
vt 0.8972 0.4750 0.0000
vt 0.7802 0.5054 0.0000
vt 0.7802 0.4750 0.0000
vt 0.5718 0.7638 0.0000
vt 0.5718 0.7253 0.0000
vt 0.2133 0.9744 0.0000
vt 0.0836 0.9745 0.0000
vt 0.0963 0.9440 0.0000
vt 0.2133 0.9440 0.0000
vt 0.1477 0.1240 0.0000
vt 0.1477 0.1717 0.0000
vt 0.1418 0.1776 0.0000
vt 0.1418 0.1181 0.0000
vt 0.1723 0.1717 0.0000
vt 0.1723 0.1800 0.0000
vt 0.7425 0.9456 0.0000
vt 0.6133 0.9456 0.0000
vt 0.6133 0.9364 0.0000
vt 0.7425 0.9364 0.0000
vt 0.5631 0.9456 0.0000
vt 0.5631 0.9364 0.0000
vt 0.0242 0.2763 0.0000
vt 0.0242 0.5487 0.0000
vt 0.0159 0.5487 0.0000
vt 0.0159 0.2763 0.0000
vt 0.2938 0.2951 0.0000
vt 0.2938 0.2448 0.0000
vt 0.3030 0.2448 0.0000
vt 0.3030 0.2951 0.0000
vt 0.2938 0.1156 0.0000
vt 0.3030 0.1156 0.0000
vt 0.0984 0.2368 0.0000
vt 0.1230 0.2368 0.0000
vt 0.1288 0.2427 0.0000
vt 0.0984 0.2451 0.0000
vt 0.1230 0.1891 0.0000
vt 0.1288 0.1832 0.0000
vt 0.0984 0.1891 0.0000
vt 0.0984 0.1808 0.0000
vt 0.3595 0.1156 0.0000
vt 0.3595 0.2448 0.0000
vt 0.3503 0.2448 0.0000
vt 0.3503 0.1156 0.0000
vt 0.3595 0.2951 0.0000
vt 0.3503 0.2951 0.0000
vt 0.8050 0.9751 0.0000
vt 0.5327 0.9751 0.0000
vt 0.5327 0.9668 0.0000
vt 0.8050 0.9668 0.0000
vt 0.0425 0.2763 0.0000
vt 0.0425 0.3266 0.0000
vt 0.0333 0.3266 0.0000
vt 0.0333 0.2763 0.0000
vt 0.0425 0.4557 0.0000
vt 0.0333 0.4557 0.0000
vt 0.1723 0.1240 0.0000
vt 0.1723 0.1156 0.0000
vt 0.1664 0.2368 0.0000
vt 0.1664 0.1891 0.0000
vt 0.1723 0.1832 0.0000
vt 0.1723 0.2427 0.0000
vt 0.1418 0.1891 0.0000
vt 0.1418 0.1808 0.0000
vt 0.7455 0.9364 0.0000
vt 0.8624 0.9364 0.0000
vt 0.8624 0.9447 0.0000
vt 0.7455 0.9447 0.0000
vt 0.0550 0.5489 0.0000
vt 0.0550 0.4990 0.0000
vt 0.0641 0.4990 0.0000
vt 0.0641 0.5489 0.0000
vt 0.0550 0.2002 0.0000
vt 0.0641 0.2002 0.0000
vt 0.0550 0.1504 0.0000
vt 0.0641 0.1504 0.0000
vt 0.8671 0.9364 0.0000
vt 0.9840 0.9364 0.0000
vt 0.9840 0.9447 0.0000
vt 0.8671 0.9447 0.0000
vt 0.1288 0.1240 0.0000
vt 0.1043 0.1240 0.0000
vt 0.0984 0.1181 0.0000
vt 0.1288 0.1156 0.0000
vt 0.1043 0.1717 0.0000
vt 0.0984 0.1776 0.0000
vt 0.1288 0.1717 0.0000
vt 0.1288 0.1800 0.0000
vt 0.3242 0.2951 0.0000
vt 0.3242 0.1659 0.0000
vt 0.3334 0.1659 0.0000
vt 0.3334 0.2951 0.0000
vt 0.3242 0.1156 0.0000
vt 0.3334 0.1156 0.0000
vt 0.0855 0.1287 0.0000
vt 0.0855 0.4163 0.0000
vt 0.0767 0.4163 0.0000
vt 0.0767 0.1287 0.0000
vt 0.0855 0.4643 0.0000
vt 0.0767 0.4643 0.0000
vt 0.9232 0.9751 0.0000
vt 0.8063 0.9751 0.0000
vt 0.8063 0.9668 0.0000
vt 0.9232 0.9668 0.0000
vt 0.1418 0.2368 0.0000
vt 0.1418 0.2451 0.0000
# 216 texture coords

o Box001
g Box001
usemtl Material__81
f 1/1/1 2/2/1 3/3/1 
f 3/3/1 4/4/1 1/1/1 
f 5/5/2 6/6/2 7/7/2 
f 7/7/2 8/8/2 5/5/2 
f 9/9/3 10/10/3 11/11/3 
f 11/11/3 12/12/3 9/9/3 
f 13/13/4 14/14/4 15/15/4 
f 15/15/4 16/16/4 13/13/4 
f 17/17/5 18/18/5 19/19/5 
f 19/19/5 20/20/5 17/17/5 
f 21/21/6 22/22/6 23/23/6 
f 23/23/6 24/24/6 21/21/6 
f 10/10/7 25/25/7 26/26/7 
f 26/26/7 11/11/7 10/10/7 
f 12/12/8 27/27/8 28/28/8 
f 28/28/8 9/9/8 12/12/8 
f 29/29/9 17/17/9 20/20/9 
f 20/20/9 30/30/9 29/29/9 
f 18/18/10 31/31/10 32/32/10 
f 32/32/10 19/19/10 18/18/10 
f 33/33/1 34/34/1 35/35/1 
f 35/35/1 36/36/1 2/2/1 
f 33/33/1 35/35/1 2/2/1 
f 1/1/1 33/33/1 2/2/1 
f 37/37/1 38/38/1 39/39/1 
f 39/39/1 40/40/1 4/4/1 
f 37/37/1 39/39/1 4/4/1 
f 3/3/1 37/37/1 4/4/1 
f 41/41/2 42/42/2 43/43/2 
f 43/43/2 44/44/2 6/6/2 
f 41/41/2 43/43/2 6/6/2 
f 5/5/2 41/41/2 6/6/2 
f 45/45/2 46/46/2 47/47/2 
f 47/47/2 48/48/2 8/8/2 
f 45/45/2 47/47/2 8/8/2 
f 7/7/2 45/45/2 8/8/2 
f 29/49/11 30/50/11 49/51/11 
f 49/51/11 50/52/11 29/49/11 
f 26/53/12 25/54/12 51/55/12 
f 51/55/12 52/56/12 26/53/12 
f 28/57/13 27/58/13 53/59/13 
f 53/59/13 54/60/13 28/57/13 
f 32/61/14 31/62/14 55/63/14 
f 55/63/14 56/64/14 32/61/14 
f 28/65/15 54/66/15 57/67/15 
f 57/67/16 58/68/16 28/65/16 
f 21/69/1 24/70/1 1/1/1 
f 1/1/1 4/4/1 21/69/1 
f 55/71/17 31/72/17 59/73/17 
f 59/73/18 60/74/18 55/71/18 
f 31/72/19 18/75/19 61/76/19 
f 61/76/19 59/73/19 31/72/19 
f 18/75/20 17/77/20 62/78/20 
f 62/78/20 61/76/20 18/75/20 
f 17/77/21 29/79/21 63/80/21 
f 63/80/21 62/78/21 17/77/21 
f 29/79/22 50/81/22 64/82/22 
f 64/82/23 63/80/23 29/79/23 
f 13/83/1 16/84/1 3/3/1 
f 3/3/1 2/2/1 13/83/1 
f 51/85/24 25/86/24 65/87/24 
f 65/87/25 66/88/25 51/85/25 
f 25/86/26 10/89/26 67/90/26 
f 67/90/26 65/87/26 25/86/26 
f 10/89/27 9/91/27 68/92/27 
f 68/92/27 67/90/27 10/89/27 
f 9/91/28 28/65/28 58/68/28 
f 58/68/28 68/92/28 9/91/28 
f 12/93/29 11/94/29 69/95/29 
f 69/95/29 70/96/29 12/93/29 
f 11/94/30 26/97/30 71/98/30 
f 71/98/30 69/95/30 11/94/30 
f 26/97/31 52/99/31 72/100/31 
f 72/100/32 71/98/32 26/97/32 
f 15/101/2 14/102/2 5/5/2 
f 5/5/2 8/8/2 15/101/2 
f 49/103/33 30/104/33 73/105/33 
f 73/105/34 74/106/34 49/103/34 
f 30/104/35 20/107/35 75/108/35 
f 75/108/35 73/105/35 30/104/35 
f 20/107/36 19/109/36 76/110/36 
f 76/110/36 75/108/36 20/107/36 
f 19/109/37 32/111/37 77/112/37 
f 77/112/37 76/110/37 19/109/37 
f 32/111/38 56/113/38 78/114/38 
f 78/114/39 77/112/39 32/111/39 
f 23/115/2 22/116/2 7/7/2 
f 7/7/2 6/6/2 23/115/2 
f 53/117/40 27/118/40 79/119/40 
f 79/119/41 80/120/41 53/117/41 
f 27/118/42 12/93/42 70/96/42 
f 70/96/42 79/119/42 27/118/42 
f 16/121/5 15/122/5 52/123/5 
f 52/123/5 51/124/5 16/121/5 
f 15/122/5 8/125/5 72/126/5 
f 72/126/5 52/123/5 15/122/5 
f 8/127/6 48/128/6 71/129/6 
f 71/129/6 72/130/6 8/127/6 
f 48/128/10 47/131/10 69/132/10 
f 69/132/10 71/129/10 48/128/10 
f 47/133/5 46/134/5 70/135/5 
f 70/135/5 69/136/5 47/133/5 
f 46/137/9 45/138/9 79/139/9 
f 79/139/9 70/140/9 46/137/9 
f 45/138/4 7/141/4 80/142/4 
f 80/142/4 79/139/4 45/138/4 
f 7/143/5 22/144/5 53/145/5 
f 53/145/5 80/146/5 7/143/5 
f 22/144/5 21/147/5 54/148/5 
f 54/148/5 53/145/5 22/144/5 
f 21/147/5 4/149/5 57/150/5 
f 57/150/5 54/148/5 21/147/5 
f 4/151/4 40/152/4 58/153/4 
f 58/153/4 57/154/4 4/151/4 
f 40/152/9 39/155/9 68/156/9 
f 68/156/9 58/153/9 40/152/9 
f 39/157/5 38/158/5 67/159/5 
f 67/159/5 68/160/5 39/157/5 
f 38/161/10 37/162/10 65/163/10 
f 65/163/10 67/164/10 38/161/10 
f 37/162/6 3/165/6 66/166/6 
f 66/166/6 65/163/6 37/162/6 
f 3/167/5 16/121/5 51/124/5 
f 51/124/5 66/168/5 3/167/5 
f 14/169/3 13/170/3 50/171/3 
f 50/171/3 49/172/3 14/169/3 
f 13/170/3 2/173/3 64/174/3 
f 64/174/3 50/171/3 13/170/3 
f 2/175/6 36/176/6 63/177/6 
f 63/177/6 64/178/6 2/175/6 
f 36/179/8 35/180/8 62/181/8 
f 62/181/8 63/182/8 36/179/8 
f 35/180/3 34/183/3 61/184/3 
f 61/184/3 62/181/3 35/180/3 
f 34/183/7 33/185/7 59/186/7 
f 59/186/7 61/184/7 34/183/7 
f 33/187/4 1/188/4 60/189/4 
f 60/189/4 59/190/4 33/187/4 
f 1/191/3 24/192/3 55/193/3 
f 55/193/3 60/194/3 1/191/3 
f 24/192/3 23/195/3 56/196/3 
f 56/196/3 55/193/3 24/192/3 
f 23/195/3 6/197/3 78/198/3 
f 78/198/3 56/196/3 23/195/3 
f 6/199/4 44/200/4 77/201/4 
f 77/201/4 78/202/4 6/199/4 
f 44/200/7 43/203/7 76/204/7 
f 76/204/7 77/201/7 44/200/7 
f 43/205/3 42/206/3 75/207/3 
f 75/207/3 76/208/3 43/205/3 
f 42/206/8 41/209/8 73/210/8 
f 73/210/8 75/207/8 42/206/8 
f 41/211/6 5/212/6 74/213/6 
f 74/213/6 73/214/6 41/211/6 
f 5/215/3 14/169/3 49/172/3 
f 49/172/3 74/216/3 5/215/3 
# 156 faces

#
# object Object006
#

v  8.5000 -4.9000 9.2971
v  8.5000 -25.4000 9.2971
v  24.3000 -25.4000 9.2971
v  24.3000 25.4000 9.2971
v  8.5000 25.4000 9.2971
v  8.5000 7.6000 9.2971
v  -8.6000 25.4000 9.2971
v  -24.3000 25.4000 9.2971
v  -24.3000 -25.4000 9.2971
v  -8.6000 7.6000 9.2971
v  -8.6000 -25.4000 9.2971
v  -8.6000 -4.9000 9.2971
v  -8.6000 25.4000 -3.6624
v  -24.3000 25.4000 -3.6624
v  -24.3000 -25.4000 -3.6624
v  -8.6000 7.6000 -3.6624
v  24.3000 25.4000 -3.6624
v  8.5000 25.4000 -3.6624
v  8.5000 7.6000 -3.6624
v  24.3000 -25.4000 -3.6624
v  8.5000 -4.9000 -3.6624
v  8.5000 -25.4000 -3.6624
v  -8.6000 -4.9000 -3.6624
v  -8.6000 -25.4000 -3.6624
# 24 vertices

vn 0.0000 -0.0000 1.0000
vn 0.0000 1.0000 -0.0000
vn -1.0000 0.0000 -0.0000
vn 1.0000 0.0000 -0.0000
vn 0.0000 -1.0000 -0.0000
vn 0.0000 1.0000 0.0000
# 6 vertex normals

vt 0.7666 0.8450 0.0000
vt 0.7666 0.7559 0.0000
vt 0.8353 0.7559 0.0000
vt 0.8353 0.9767 0.0000
vt 0.7666 0.9767 0.0000
vt 0.7666 0.8993 0.0000
vt 0.6923 0.9767 0.0000
vt 0.6241 0.9767 0.0000
vt 0.6241 0.7559 0.0000
vt 0.6923 0.8993 0.0000
vt 0.6923 0.7559 0.0000
vt 0.6923 0.8450 0.0000
vt 0.3605 0.4213 0.0000
vt 0.2923 0.4213 0.0000
vt 0.2923 0.3650 0.0000
vt 0.3605 0.3650 0.0000
vt 0.1287 0.9585 0.0000
vt 0.1287 0.7377 0.0000
vt 0.1850 0.7377 0.0000
vt 0.1850 0.9585 0.0000
vt 0.3196 0.3032 0.0000
vt 0.2423 0.3032 0.0000
vt 0.2423 0.2468 0.0000
vt 0.3196 0.2468 0.0000
vt 0.5428 0.3623 0.0000
vt 0.4741 0.3623 0.0000
vt 0.4741 0.3059 0.0000
vt 0.5428 0.3059 0.0000
vt 0.4106 0.3032 0.0000
vt 0.3332 0.3032 0.0000
vt 0.3332 0.2468 0.0000
vt 0.4106 0.2468 0.0000
vt 0.0105 0.7131 0.0000
vt 0.0105 0.4923 0.0000
vt 0.0668 0.4923 0.0000
vt 0.0668 0.7131 0.0000
vt 0.7832 0.7041 0.0000
vt 0.7832 0.6150 0.0000
vt 0.8395 0.6150 0.0000
vt 0.8395 0.7041 0.0000
vt 0.2791 0.4213 0.0000
vt 0.2105 0.4213 0.0000
vt 0.2105 0.3650 0.0000
vt 0.2791 0.3650 0.0000
vt 0.3802 0.3623 0.0000
vt 0.3059 0.3623 0.0000
vt 0.3059 0.3059 0.0000
vt 0.3802 0.3059 0.0000
vt 0.2196 0.3059 0.0000
vt 0.2939 0.3059 0.0000
vt 0.2939 0.3623 0.0000
vt 0.2196 0.3623 0.0000
vt 0.7150 0.4314 0.0000
vt 0.7150 0.3423 0.0000
vt 0.7713 0.3423 0.0000
vt 0.7713 0.4314 0.0000
vt 0.4423 0.4213 0.0000
vt 0.3741 0.4213 0.0000
vt 0.3741 0.3650 0.0000
vt 0.4423 0.3650 0.0000
# 60 texture coords

o Object006
g Object006
usemtl Material__206
f 81/217/43 82/218/43 83/219/43 
f 84/220/43 85/221/43 86/222/43 
f 83/219/43 84/220/43 86/222/43 
f 81/217/43 83/219/43 86/222/43 
f 87/223/43 88/224/43 89/225/43 
f 90/226/43 87/223/43 89/225/43 
f 89/225/43 91/227/43 92/228/43 
f 90/226/43 89/225/43 92/228/43 
f 86/222/43 90/226/43 92/228/43 
f 81/217/43 86/222/43 92/228/43 
f 88/229/44 87/230/44 93/231/44 
f 93/231/44 94/232/44 88/229/44 
f 89/233/45 88/234/45 94/235/45 
f 94/235/45 95/236/45 89/233/45 
f 87/237/46 90/238/46 96/239/46 
f 96/239/46 93/240/46 87/237/46 
f 85/241/44 84/242/44 97/243/44 
f 97/243/44 98/244/44 85/241/44 
f 86/245/45 85/246/45 98/247/45 
f 98/247/45 99/248/45 86/245/45 
f 84/249/46 83/250/46 100/251/46 
f 100/251/46 97/252/46 84/249/46 
f 82/253/45 81/254/45 101/255/45 
f 101/255/45 102/256/45 82/253/45 
f 83/257/47 82/258/47 102/259/47 
f 102/259/47 100/260/47 83/257/47 
f 81/261/47 92/262/47 103/263/47 
f 103/263/47 101/264/47 81/261/47 
f 90/265/48 86/266/48 99/267/48 
f 99/267/48 96/268/48 90/265/48 
f 92/269/46 91/270/46 104/271/46 
f 104/271/46 103/272/46 92/269/46 
f 91/273/47 89/274/47 95/275/47 
f 95/275/47 104/276/47 91/273/47 
# 34 faces

